<mxfile host="app.diagrams.net" modified="2024-05-18T18:26:04.699Z" agent="Mozilla/5.0 (Windows NT 10.0; Win64; x64) AppleWebKit/537.36 (KHTML, like Gecko) Chrome/124.0.0.0 Safari/537.36" etag="iTHGyZ0VTjQuvSSE9DBT" version="24.4.0" type="device">
  <diagram name="Page-1" id="peKzmMszpbKrmGetyb13">
    <mxGraphModel dx="1302" dy="1877" grid="1" gridSize="10" guides="1" tooltips="1" connect="1" arrows="1" fold="1" page="1" pageScale="1" pageWidth="827" pageHeight="1169" math="0" shadow="0">
      <root>
        <mxCell id="0" />
        <mxCell id="1" parent="0" />
        <mxCell id="msCMPJcNtfmj9_Efs-TA-1" value="" style="rounded=0;whiteSpace=wrap;html=1;" vertex="1" parent="1">
          <mxGeometry x="30" y="-80" width="660" height="1500" as="geometry" />
        </mxCell>
        <mxCell id="msCMPJcNtfmj9_Efs-TA-2" value="" style="rounded=0;whiteSpace=wrap;html=1;" vertex="1" parent="1">
          <mxGeometry x="110" y="10" width="480" height="1290" as="geometry" />
        </mxCell>
        <mxCell id="msCMPJcNtfmj9_Efs-TA-4" value="N" style="text;html=1;align=center;verticalAlign=middle;whiteSpace=wrap;rounded=0;fontSize=26;fontColor=#FF6666;" vertex="1" parent="1">
          <mxGeometry x="610" y="589.5" width="60" height="30" as="geometry" />
        </mxCell>
        <mxCell id="msCMPJcNtfmj9_Efs-TA-5" value="S" style="text;html=1;align=center;verticalAlign=middle;whiteSpace=wrap;rounded=0;fontSize=26;fontColor=#FF6666;" vertex="1" parent="1">
          <mxGeometry x="40" y="585" width="60" height="30" as="geometry" />
        </mxCell>
        <mxCell id="msCMPJcNtfmj9_Efs-TA-6" value="E" style="text;html=1;align=center;verticalAlign=middle;whiteSpace=wrap;rounded=0;fontSize=26;fontColor=#FF6666;" vertex="1" parent="1">
          <mxGeometry x="320" y="1330" width="60" height="30" as="geometry" />
        </mxCell>
        <mxCell id="msCMPJcNtfmj9_Efs-TA-7" value="W" style="text;html=1;align=center;verticalAlign=middle;whiteSpace=wrap;rounded=0;fontSize=26;fontColor=#FF6666;" vertex="1" parent="1">
          <mxGeometry x="320" y="-50" width="60" height="30" as="geometry" />
        </mxCell>
        <mxCell id="msCMPJcNtfmj9_Efs-TA-9" value="" style="rounded=0;whiteSpace=wrap;html=1;fillColor=#f5f5f5;fontColor=#333333;strokeColor=#666666;" vertex="1" parent="1">
          <mxGeometry x="110" y="200" width="90" height="110" as="geometry" />
        </mxCell>
        <mxCell id="msCMPJcNtfmj9_Efs-TA-10" value="" style="rounded=0;whiteSpace=wrap;html=1;fillColor=#f5f5f5;fontColor=#333333;strokeColor=#666666;" vertex="1" parent="1">
          <mxGeometry x="110" y="359" width="90" height="111" as="geometry" />
        </mxCell>
        <mxCell id="msCMPJcNtfmj9_Efs-TA-11" value="" style="rounded=0;whiteSpace=wrap;html=1;fillColor=#f5f5f5;fontColor=#333333;strokeColor=#666666;" vertex="1" parent="1">
          <mxGeometry x="110" y="518" width="90" height="112" as="geometry" />
        </mxCell>
        <mxCell id="msCMPJcNtfmj9_Efs-TA-12" value="" style="rounded=0;whiteSpace=wrap;html=1;fillColor=#f5f5f5;fontColor=#333333;strokeColor=#666666;" vertex="1" parent="1">
          <mxGeometry x="110" y="677" width="90" height="113" as="geometry" />
        </mxCell>
        <mxCell id="msCMPJcNtfmj9_Efs-TA-13" value="" style="rounded=0;whiteSpace=wrap;html=1;fillColor=#f5f5f5;fontColor=#333333;strokeColor=#666666;" vertex="1" parent="1">
          <mxGeometry x="110" y="837" width="90" height="113" as="geometry" />
        </mxCell>
        <mxCell id="msCMPJcNtfmj9_Efs-TA-14" value="" style="rounded=0;whiteSpace=wrap;html=1;fillColor=#f5f5f5;fontColor=#333333;strokeColor=#666666;" vertex="1" parent="1">
          <mxGeometry x="110" y="996" width="90" height="104" as="geometry" />
        </mxCell>
        <mxCell id="msCMPJcNtfmj9_Efs-TA-18" value="" style="rounded=0;whiteSpace=wrap;html=1;" vertex="1" parent="1">
          <mxGeometry x="220" y="1290" width="260" height="10" as="geometry" />
        </mxCell>
        <mxCell id="msCMPJcNtfmj9_Efs-TA-23" value="" style="rounded=0;whiteSpace=wrap;html=1;" vertex="1" parent="1">
          <mxGeometry x="230" y="90" width="240" height="30" as="geometry" />
        </mxCell>
        <mxCell id="msCMPJcNtfmj9_Efs-TA-24" value="" style="rounded=0;whiteSpace=wrap;html=1;" vertex="1" parent="1">
          <mxGeometry x="110" y="40" width="480" height="10" as="geometry" />
        </mxCell>
        <mxCell id="msCMPJcNtfmj9_Efs-TA-25" value="" style="rounded=0;whiteSpace=wrap;html=1;" vertex="1" parent="1">
          <mxGeometry x="450" y="50" width="20" height="40" as="geometry" />
        </mxCell>
        <mxCell id="msCMPJcNtfmj9_Efs-TA-26" value="" style="rounded=0;whiteSpace=wrap;html=1;fillColor=#fff2cc;strokeColor=#d6b656;" vertex="1" parent="1">
          <mxGeometry x="452.5" y="60" width="15" height="20" as="geometry" />
        </mxCell>
        <mxCell id="msCMPJcNtfmj9_Efs-TA-27" value="" style="rounded=0;whiteSpace=wrap;html=1;" vertex="1" parent="1">
          <mxGeometry x="390" y="10" width="120" height="20" as="geometry" />
        </mxCell>
        <mxCell id="msCMPJcNtfmj9_Efs-TA-28" value="" style="rounded=0;whiteSpace=wrap;html=1;" vertex="1" parent="1">
          <mxGeometry x="510" y="10" width="30" height="20" as="geometry" />
        </mxCell>
        <mxCell id="msCMPJcNtfmj9_Efs-TA-29" value="" style="rounded=0;whiteSpace=wrap;html=1;" vertex="1" parent="1">
          <mxGeometry x="390" y="10" width="10" height="20" as="geometry" />
        </mxCell>
        <mxCell id="msCMPJcNtfmj9_Efs-TA-30" value="" style="rounded=0;whiteSpace=wrap;html=1;" vertex="1" parent="1">
          <mxGeometry x="400" y="10" width="10" height="20" as="geometry" />
        </mxCell>
        <mxCell id="msCMPJcNtfmj9_Efs-TA-31" value="" style="rounded=0;whiteSpace=wrap;html=1;" vertex="1" parent="1">
          <mxGeometry x="409" y="10" width="10" height="20" as="geometry" />
        </mxCell>
        <mxCell id="msCMPJcNtfmj9_Efs-TA-32" value="" style="rounded=0;whiteSpace=wrap;html=1;" vertex="1" parent="1">
          <mxGeometry x="420" y="10" width="10" height="20" as="geometry" />
        </mxCell>
        <mxCell id="msCMPJcNtfmj9_Efs-TA-33" value="" style="rounded=0;whiteSpace=wrap;html=1;" vertex="1" parent="1">
          <mxGeometry x="430" y="10" width="10" height="20" as="geometry" />
        </mxCell>
        <mxCell id="msCMPJcNtfmj9_Efs-TA-34" value="" style="rounded=0;whiteSpace=wrap;html=1;" vertex="1" parent="1">
          <mxGeometry x="440" y="10" width="10" height="20" as="geometry" />
        </mxCell>
        <mxCell id="msCMPJcNtfmj9_Efs-TA-35" value="" style="rounded=0;whiteSpace=wrap;html=1;" vertex="1" parent="1">
          <mxGeometry x="450" y="10" width="10" height="20" as="geometry" />
        </mxCell>
        <mxCell id="msCMPJcNtfmj9_Efs-TA-36" value="" style="rounded=0;whiteSpace=wrap;html=1;" vertex="1" parent="1">
          <mxGeometry x="460" y="10" width="10" height="20" as="geometry" />
        </mxCell>
        <mxCell id="msCMPJcNtfmj9_Efs-TA-37" value="" style="rounded=0;whiteSpace=wrap;html=1;" vertex="1" parent="1">
          <mxGeometry x="470" y="10" width="10" height="20" as="geometry" />
        </mxCell>
        <mxCell id="msCMPJcNtfmj9_Efs-TA-38" value="" style="rounded=0;whiteSpace=wrap;html=1;" vertex="1" parent="1">
          <mxGeometry x="480" y="10" width="10" height="20" as="geometry" />
        </mxCell>
        <mxCell id="msCMPJcNtfmj9_Efs-TA-39" value="" style="rounded=0;whiteSpace=wrap;html=1;" vertex="1" parent="1">
          <mxGeometry x="490" y="10" width="10" height="20" as="geometry" />
        </mxCell>
        <mxCell id="msCMPJcNtfmj9_Efs-TA-40" value="" style="rounded=0;whiteSpace=wrap;html=1;" vertex="1" parent="1">
          <mxGeometry x="330" y="10" width="10" height="20" as="geometry" />
        </mxCell>
        <mxCell id="msCMPJcNtfmj9_Efs-TA-41" value="" style="rounded=0;whiteSpace=wrap;html=1;" vertex="1" parent="1">
          <mxGeometry x="340" y="10" width="10" height="20" as="geometry" />
        </mxCell>
        <mxCell id="msCMPJcNtfmj9_Efs-TA-42" value="" style="rounded=0;whiteSpace=wrap;html=1;" vertex="1" parent="1">
          <mxGeometry x="349" y="10" width="10" height="20" as="geometry" />
        </mxCell>
        <mxCell id="msCMPJcNtfmj9_Efs-TA-43" value="" style="rounded=0;whiteSpace=wrap;html=1;" vertex="1" parent="1">
          <mxGeometry x="360" y="10" width="10" height="20" as="geometry" />
        </mxCell>
        <mxCell id="msCMPJcNtfmj9_Efs-TA-44" value="" style="rounded=0;whiteSpace=wrap;html=1;" vertex="1" parent="1">
          <mxGeometry x="370" y="10" width="10" height="20" as="geometry" />
        </mxCell>
        <mxCell id="msCMPJcNtfmj9_Efs-TA-45" value="" style="rounded=0;whiteSpace=wrap;html=1;" vertex="1" parent="1">
          <mxGeometry x="380" y="10" width="10" height="20" as="geometry" />
        </mxCell>
        <mxCell id="msCMPJcNtfmj9_Efs-TA-46" value="" style="rounded=0;whiteSpace=wrap;html=1;" vertex="1" parent="1">
          <mxGeometry x="270" y="10" width="10" height="20" as="geometry" />
        </mxCell>
        <mxCell id="msCMPJcNtfmj9_Efs-TA-47" value="" style="rounded=0;whiteSpace=wrap;html=1;" vertex="1" parent="1">
          <mxGeometry x="280" y="10" width="10" height="20" as="geometry" />
        </mxCell>
        <mxCell id="msCMPJcNtfmj9_Efs-TA-48" value="" style="rounded=0;whiteSpace=wrap;html=1;" vertex="1" parent="1">
          <mxGeometry x="289" y="10" width="10" height="20" as="geometry" />
        </mxCell>
        <mxCell id="msCMPJcNtfmj9_Efs-TA-49" value="" style="rounded=0;whiteSpace=wrap;html=1;" vertex="1" parent="1">
          <mxGeometry x="300" y="10" width="10" height="20" as="geometry" />
        </mxCell>
        <mxCell id="msCMPJcNtfmj9_Efs-TA-50" value="" style="rounded=0;whiteSpace=wrap;html=1;" vertex="1" parent="1">
          <mxGeometry x="310" y="10" width="10" height="20" as="geometry" />
        </mxCell>
        <mxCell id="msCMPJcNtfmj9_Efs-TA-51" value="" style="rounded=0;whiteSpace=wrap;html=1;" vertex="1" parent="1">
          <mxGeometry x="320" y="10" width="10" height="20" as="geometry" />
        </mxCell>
        <mxCell id="msCMPJcNtfmj9_Efs-TA-52" value="" style="rounded=0;whiteSpace=wrap;html=1;" vertex="1" parent="1">
          <mxGeometry x="220" y="10" width="50" height="20" as="geometry" />
        </mxCell>
        <mxCell id="msCMPJcNtfmj9_Efs-TA-53" value="" style="rounded=0;whiteSpace=wrap;html=1;fillColor=#dae8fc;strokeColor=#6c8ebf;" vertex="1" parent="1">
          <mxGeometry x="110" y="957" width="30" height="39" as="geometry" />
        </mxCell>
        <mxCell id="msCMPJcNtfmj9_Efs-TA-54" value="" style="rounded=0;whiteSpace=wrap;html=1;fillColor=#dae8fc;strokeColor=#6c8ebf;" vertex="1" parent="1">
          <mxGeometry x="110" y="798" width="30" height="39" as="geometry" />
        </mxCell>
        <mxCell id="msCMPJcNtfmj9_Efs-TA-55" value="" style="rounded=0;whiteSpace=wrap;html=1;fillColor=#dae8fc;strokeColor=#6c8ebf;" vertex="1" parent="1">
          <mxGeometry x="110" y="638" width="30" height="39" as="geometry" />
        </mxCell>
        <mxCell id="msCMPJcNtfmj9_Efs-TA-56" value="" style="rounded=0;whiteSpace=wrap;html=1;fillColor=#dae8fc;strokeColor=#6c8ebf;" vertex="1" parent="1">
          <mxGeometry x="110" y="479" width="30" height="39" as="geometry" />
        </mxCell>
        <mxCell id="msCMPJcNtfmj9_Efs-TA-58" value="" style="rounded=0;whiteSpace=wrap;html=1;fillColor=#dae8fc;strokeColor=#6c8ebf;" vertex="1" parent="1">
          <mxGeometry x="110" y="320" width="30" height="39" as="geometry" />
        </mxCell>
        <mxCell id="msCMPJcNtfmj9_Efs-TA-59" value="" style="rounded=0;whiteSpace=wrap;html=1;fillColor=#fbff00;gradientColor=#ffea00;" vertex="1" parent="1">
          <mxGeometry x="110" y="1230" width="480" height="10" as="geometry" />
        </mxCell>
        <mxCell id="msCMPJcNtfmj9_Efs-TA-19" value="" style="rhombus;whiteSpace=wrap;html=1;" vertex="1" parent="1">
          <mxGeometry x="410" y="1230" width="20" height="20" as="geometry" />
        </mxCell>
        <mxCell id="msCMPJcNtfmj9_Efs-TA-20" value="" style="rhombus;whiteSpace=wrap;html=1;" vertex="1" parent="1">
          <mxGeometry x="380" y="1220" width="20" height="20" as="geometry" />
        </mxCell>
        <mxCell id="msCMPJcNtfmj9_Efs-TA-21" value="" style="rhombus;whiteSpace=wrap;html=1;" vertex="1" parent="1">
          <mxGeometry x="330" y="1220" width="20" height="20" as="geometry" />
        </mxCell>
        <mxCell id="msCMPJcNtfmj9_Efs-TA-22" value="" style="rhombus;whiteSpace=wrap;html=1;" vertex="1" parent="1">
          <mxGeometry x="290" y="1220" width="20" height="20" as="geometry" />
        </mxCell>
        <mxCell id="msCMPJcNtfmj9_Efs-TA-15" value="" style="ellipse;whiteSpace=wrap;html=1;aspect=fixed;" vertex="1" parent="1">
          <mxGeometry x="300" y="1240" width="40" height="40" as="geometry" />
        </mxCell>
        <mxCell id="msCMPJcNtfmj9_Efs-TA-17" value="" style="ellipse;whiteSpace=wrap;html=1;aspect=fixed;" vertex="1" parent="1">
          <mxGeometry x="370" y="1240" width="40" height="40" as="geometry" />
        </mxCell>
        <mxCell id="msCMPJcNtfmj9_Efs-TA-60" value="" style="rounded=0;whiteSpace=wrap;html=1;fillColor=#fbff00;gradientColor=#ffea00;" vertex="1" parent="1">
          <mxGeometry x="110" y="1150" width="480" height="10" as="geometry" />
        </mxCell>
        <mxCell id="msCMPJcNtfmj9_Efs-TA-61" value="" style="whiteSpace=wrap;html=1;aspect=fixed;" vertex="1" parent="1">
          <mxGeometry x="267.5" y="1126" width="36" height="36" as="geometry" />
        </mxCell>
        <mxCell id="msCMPJcNtfmj9_Efs-TA-62" value="" style="whiteSpace=wrap;html=1;aspect=fixed;" vertex="1" parent="1">
          <mxGeometry x="304.5" y="1126" width="36" height="36" as="geometry" />
        </mxCell>
        <mxCell id="msCMPJcNtfmj9_Efs-TA-63" value="" style="whiteSpace=wrap;html=1;aspect=fixed;" vertex="1" parent="1">
          <mxGeometry x="267.5" y="1090" width="36" height="36" as="geometry" />
        </mxCell>
        <mxCell id="msCMPJcNtfmj9_Efs-TA-64" value="" style="whiteSpace=wrap;html=1;aspect=fixed;" vertex="1" parent="1">
          <mxGeometry x="304.5" y="1090" width="36" height="36" as="geometry" />
        </mxCell>
        <mxCell id="msCMPJcNtfmj9_Efs-TA-65" value="" style="rounded=0;whiteSpace=wrap;html=1;gradientColor=default;fillColor=#000033;" vertex="1" parent="1">
          <mxGeometry x="345.5" y="1080" width="10" height="95" as="geometry" />
        </mxCell>
        <mxCell id="msCMPJcNtfmj9_Efs-TA-69" value="" style="ellipse;whiteSpace=wrap;html=1;aspect=fixed;direction=south;" vertex="1" parent="1">
          <mxGeometry x="385.5" y="1107.5" width="40" height="40" as="geometry" />
        </mxCell>
        <mxCell id="msCMPJcNtfmj9_Efs-TA-70" value="" style="rhombus;whiteSpace=wrap;html=1;" vertex="1" parent="1">
          <mxGeometry x="365.5" y="1098.5" width="20" height="19" as="geometry" />
        </mxCell>
        <mxCell id="msCMPJcNtfmj9_Efs-TA-71" value="" style="rhombus;whiteSpace=wrap;html=1;" vertex="1" parent="1">
          <mxGeometry x="420.5" y="1080" width="20" height="19" as="geometry" />
        </mxCell>
        <mxCell id="msCMPJcNtfmj9_Efs-TA-72" value="" style="rounded=0;whiteSpace=wrap;html=1;gradientColor=default;fillColor=#000033;" vertex="1" parent="1">
          <mxGeometry x="345" y="846" width="10" height="95" as="geometry" />
        </mxCell>
        <mxCell id="msCMPJcNtfmj9_Efs-TA-73" value="" style="rounded=0;whiteSpace=wrap;html=1;gradientColor=default;fillColor=#000033;" vertex="1" parent="1">
          <mxGeometry x="369" y="957" width="88.5" height="15" as="geometry" />
        </mxCell>
        <mxCell id="msCMPJcNtfmj9_Efs-TA-74" value="" style="whiteSpace=wrap;html=1;aspect=fixed;fillColor=#d5e8d4;gradientColor=#97d077;strokeColor=#82b366;" vertex="1" parent="1">
          <mxGeometry x="380" y="980" width="26" height="26" as="geometry" />
        </mxCell>
        <mxCell id="msCMPJcNtfmj9_Efs-TA-75" value="" style="whiteSpace=wrap;html=1;aspect=fixed;fillColor=#d5e8d4;gradientColor=#97d077;strokeColor=#82b366;" vertex="1" parent="1">
          <mxGeometry x="425" y="980" width="26" height="26" as="geometry" />
        </mxCell>
        <mxCell id="msCMPJcNtfmj9_Efs-TA-77" value="" style="rounded=0;whiteSpace=wrap;html=1;gradientColor=default;fillColor=#000033;" vertex="1" parent="1">
          <mxGeometry x="362.5" y="690" width="88.5" height="15" as="geometry" />
        </mxCell>
        <mxCell id="msCMPJcNtfmj9_Efs-TA-78" value="" style="rounded=0;whiteSpace=wrap;html=1;gradientColor=default;fillColor=#000033;" vertex="1" parent="1">
          <mxGeometry x="315.75" y="540" width="88.5" height="15" as="geometry" />
        </mxCell>
        <mxCell id="msCMPJcNtfmj9_Efs-TA-79" value="" style="rounded=0;whiteSpace=wrap;html=1;gradientColor=default;fillColor=#000033;" vertex="1" parent="1">
          <mxGeometry x="315.75" y="407" width="88.5" height="15" as="geometry" />
        </mxCell>
        <mxCell id="msCMPJcNtfmj9_Efs-TA-81" value="" style="rounded=0;whiteSpace=wrap;html=1;gradientColor=default;fillColor=#000033;" vertex="1" parent="1">
          <mxGeometry x="370" y="215" width="10" height="95" as="geometry" />
        </mxCell>
        <mxCell id="msCMPJcNtfmj9_Efs-TA-82" value="" style="rounded=0;whiteSpace=wrap;html=1;gradientColor=default;fillColor=#000033;" vertex="1" parent="1">
          <mxGeometry x="406" y="407" width="88.5" height="15" as="geometry" />
        </mxCell>
        <mxCell id="msCMPJcNtfmj9_Efs-TA-83" value="" style="rounded=0;whiteSpace=wrap;html=1;gradientColor=default;fillColor=#000033;" vertex="1" parent="1">
          <mxGeometry x="404.25" y="540" width="88.5" height="15" as="geometry" />
        </mxCell>
        <mxCell id="msCMPJcNtfmj9_Efs-TA-84" value="" style="whiteSpace=wrap;html=1;aspect=fixed;" vertex="1" parent="1">
          <mxGeometry x="388.5" y="262.5" width="36" height="36" as="geometry" />
        </mxCell>
        <mxCell id="msCMPJcNtfmj9_Efs-TA-85" value="" style="whiteSpace=wrap;html=1;aspect=fixed;" vertex="1" parent="1">
          <mxGeometry x="425.5" y="262.5" width="36" height="36" as="geometry" />
        </mxCell>
        <mxCell id="msCMPJcNtfmj9_Efs-TA-86" value="" style="whiteSpace=wrap;html=1;aspect=fixed;" vertex="1" parent="1">
          <mxGeometry x="388.5" y="226.5" width="36" height="36" as="geometry" />
        </mxCell>
        <mxCell id="msCMPJcNtfmj9_Efs-TA-87" value="" style="whiteSpace=wrap;html=1;aspect=fixed;" vertex="1" parent="1">
          <mxGeometry x="425.5" y="226.5" width="36" height="36" as="geometry" />
        </mxCell>
        <mxCell id="msCMPJcNtfmj9_Efs-TA-88" value="" style="whiteSpace=wrap;html=1;aspect=fixed;fillColor=#d5e8d4;gradientColor=#97d077;strokeColor=#82b366;" vertex="1" parent="1">
          <mxGeometry x="371.25" y="720" width="26" height="26" as="geometry" />
        </mxCell>
        <mxCell id="msCMPJcNtfmj9_Efs-TA-89" value="" style="whiteSpace=wrap;html=1;aspect=fixed;fillColor=#d5e8d4;gradientColor=#97d077;strokeColor=#82b366;" vertex="1" parent="1">
          <mxGeometry x="416.25" y="720" width="26" height="26" as="geometry" />
        </mxCell>
        <mxCell id="msCMPJcNtfmj9_Efs-TA-90" value="" style="whiteSpace=wrap;html=1;aspect=fixed;fillColor=#d5e8d4;gradientColor=#97d077;strokeColor=#82b366;" vertex="1" parent="1">
          <mxGeometry x="336.5" y="231.5" width="26" height="26" as="geometry" />
        </mxCell>
        <mxCell id="msCMPJcNtfmj9_Efs-TA-91" value="" style="whiteSpace=wrap;html=1;aspect=fixed;fillColor=#d5e8d4;gradientColor=#97d077;strokeColor=#82b366;" vertex="1" parent="1">
          <mxGeometry x="336.5" y="272.5" width="26" height="26" as="geometry" />
        </mxCell>
        <mxCell id="msCMPJcNtfmj9_Efs-TA-92" value="" style="ellipse;whiteSpace=wrap;html=1;aspect=fixed;" vertex="1" parent="1">
          <mxGeometry x="400" y="887.25" width="40" height="40" as="geometry" />
        </mxCell>
        <mxCell id="msCMPJcNtfmj9_Efs-TA-93" value="" style="rhombus;whiteSpace=wrap;html=1;" vertex="1" parent="1">
          <mxGeometry x="380" y="878.25" width="20" height="19" as="geometry" />
        </mxCell>
        <mxCell id="msCMPJcNtfmj9_Efs-TA-94" value="" style="rhombus;whiteSpace=wrap;html=1;" vertex="1" parent="1">
          <mxGeometry x="435" y="859.75" width="20" height="19" as="geometry" />
        </mxCell>
        <mxCell id="msCMPJcNtfmj9_Efs-TA-95" value="" style="ellipse;whiteSpace=wrap;html=1;aspect=fixed;" vertex="1" parent="1">
          <mxGeometry x="370.5" y="598" width="52" height="52" as="geometry" />
        </mxCell>
        <mxCell id="msCMPJcNtfmj9_Efs-TA-96" value="" style="rhombus;whiteSpace=wrap;html=1;" vertex="1" parent="1">
          <mxGeometry x="350.5" y="589" width="20" height="19" as="geometry" />
        </mxCell>
        <mxCell id="msCMPJcNtfmj9_Efs-TA-97" value="" style="rhombus;whiteSpace=wrap;html=1;" vertex="1" parent="1">
          <mxGeometry x="405.5" y="570.5" width="20" height="19" as="geometry" />
        </mxCell>
        <mxCell id="msCMPJcNtfmj9_Efs-TA-98" value="" style="rhombus;whiteSpace=wrap;html=1;" vertex="1" parent="1">
          <mxGeometry x="431" y="619" width="20" height="19" as="geometry" />
        </mxCell>
        <mxCell id="msCMPJcNtfmj9_Efs-TA-99" value="" style="rhombus;whiteSpace=wrap;html=1;" vertex="1" parent="1">
          <mxGeometry x="350" y="645.5" width="20" height="19" as="geometry" />
        </mxCell>
        <mxCell id="msCMPJcNtfmj9_Efs-TA-100" value="" style="whiteSpace=wrap;html=1;aspect=fixed;fillColor=#d5e8d4;gradientColor=#97d077;strokeColor=#82b366;" vertex="1" parent="1">
          <mxGeometry x="462" y="500" width="26" height="26" as="geometry" />
        </mxCell>
        <mxCell id="msCMPJcNtfmj9_Efs-TA-101" value="" style="whiteSpace=wrap;html=1;aspect=fixed;fillColor=#d5e8d4;gradientColor=#97d077;strokeColor=#82b366;" vertex="1" parent="1">
          <mxGeometry x="320" y="430" width="26" height="26" as="geometry" />
        </mxCell>
        <mxCell id="msCMPJcNtfmj9_Efs-TA-102" value="" style="rhombus;whiteSpace=wrap;html=1;" vertex="1" parent="1">
          <mxGeometry x="320" y="730" width="20" height="19" as="geometry" />
        </mxCell>
        <mxCell id="msCMPJcNtfmj9_Efs-TA-103" value="" style="rhombus;whiteSpace=wrap;html=1;" vertex="1" parent="1">
          <mxGeometry x="344" y="760" width="20" height="19" as="geometry" />
        </mxCell>
        <mxCell id="msCMPJcNtfmj9_Efs-TA-104" value="" style="rhombus;whiteSpace=wrap;html=1;" vertex="1" parent="1">
          <mxGeometry x="310" y="908.25" width="20" height="19" as="geometry" />
        </mxCell>
        <mxCell id="msCMPJcNtfmj9_Efs-TA-105" value="" style="rhombus;whiteSpace=wrap;html=1;" vertex="1" parent="1">
          <mxGeometry x="312" y="868.25" width="20" height="19" as="geometry" />
        </mxCell>
        <mxCell id="msCMPJcNtfmj9_Efs-TA-106" value="" style="rhombus;whiteSpace=wrap;html=1;" vertex="1" parent="1">
          <mxGeometry x="560" y="771" width="20" height="19" as="geometry" />
        </mxCell>
        <mxCell id="msCMPJcNtfmj9_Efs-TA-107" value="" style="rhombus;whiteSpace=wrap;html=1;" vertex="1" parent="1">
          <mxGeometry x="560" y="808" width="20" height="19" as="geometry" />
        </mxCell>
        <mxCell id="msCMPJcNtfmj9_Efs-TA-108" value="" style="ellipse;whiteSpace=wrap;html=1;aspect=fixed;" vertex="1" parent="1">
          <mxGeometry x="324.5" y="494" width="38" height="38" as="geometry" />
        </mxCell>
        <mxCell id="msCMPJcNtfmj9_Efs-TA-109" value="" style="ellipse;whiteSpace=wrap;html=1;aspect=fixed;" vertex="1" parent="1">
          <mxGeometry x="446" y="432" width="38" height="38" as="geometry" />
        </mxCell>
        <mxCell id="msCMPJcNtfmj9_Efs-TA-110" value="" style="rhombus;whiteSpace=wrap;html=1;" vertex="1" parent="1">
          <mxGeometry x="422.25" y="430" width="20" height="19" as="geometry" />
        </mxCell>
        <mxCell id="msCMPJcNtfmj9_Efs-TA-111" value="" style="rhombus;whiteSpace=wrap;html=1;" vertex="1" parent="1">
          <mxGeometry x="492.75" y="433.5" width="20" height="19" as="geometry" />
        </mxCell>
        <mxCell id="msCMPJcNtfmj9_Efs-TA-114" value="" style="rhombus;whiteSpace=wrap;html=1;" vertex="1" parent="1">
          <mxGeometry x="368.5" y="507" width="20" height="19" as="geometry" />
        </mxCell>
        <mxCell id="msCMPJcNtfmj9_Efs-TA-115" value="" style="rhombus;whiteSpace=wrap;html=1;" vertex="1" parent="1">
          <mxGeometry x="300" y="507" width="20" height="19" as="geometry" />
        </mxCell>
        <mxCell id="msCMPJcNtfmj9_Efs-TA-116" value="" style="rhombus;whiteSpace=wrap;html=1;" vertex="1" parent="1">
          <mxGeometry x="355" y="432" width="20" height="19" as="geometry" />
        </mxCell>
        <mxCell id="msCMPJcNtfmj9_Efs-TA-117" value="" style="rhombus;whiteSpace=wrap;html=1;" vertex="1" parent="1">
          <mxGeometry x="320" y="380" width="20" height="19" as="geometry" />
        </mxCell>
        <mxCell id="msCMPJcNtfmj9_Efs-TA-118" value="" style="ellipse;whiteSpace=wrap;html=1;aspect=fixed;" vertex="1" parent="1">
          <mxGeometry x="306" y="330" width="38" height="38" as="geometry" />
        </mxCell>
        <mxCell id="msCMPJcNtfmj9_Efs-TA-119" value="" style="rhombus;whiteSpace=wrap;html=1;" vertex="1" parent="1">
          <mxGeometry x="351.25" y="349" width="20" height="19" as="geometry" />
        </mxCell>
        <mxCell id="msCMPJcNtfmj9_Efs-TA-120" value="" style="rhombus;whiteSpace=wrap;html=1;" vertex="1" parent="1">
          <mxGeometry x="292" y="311" width="20" height="19" as="geometry" />
        </mxCell>
        <mxCell id="msCMPJcNtfmj9_Efs-TA-121" value="" style="rhombus;whiteSpace=wrap;html=1;" vertex="1" parent="1">
          <mxGeometry x="289" y="361" width="20" height="19" as="geometry" />
        </mxCell>
        <mxCell id="msCMPJcNtfmj9_Efs-TA-122" value="" style="whiteSpace=wrap;html=1;aspect=fixed;fillColor=#f5f5f5;gradientColor=#b3b3b3;strokeColor=#666666;" vertex="1" parent="1">
          <mxGeometry x="567.5" y="177.5" width="22.5" height="22.5" as="geometry" />
        </mxCell>
        <mxCell id="msCMPJcNtfmj9_Efs-TA-123" value="" style="whiteSpace=wrap;html=1;aspect=fixed;fillColor=#f5f5f5;gradientColor=#b3b3b3;strokeColor=#666666;" vertex="1" parent="1">
          <mxGeometry x="567.5" y="200" width="22.5" height="22.5" as="geometry" />
        </mxCell>
        <mxCell id="msCMPJcNtfmj9_Efs-TA-124" value="" style="rounded=0;whiteSpace=wrap;html=1;fillColor=#fff2cc;gradientColor=#ffd966;strokeColor=#d6b656;" vertex="1" parent="1">
          <mxGeometry x="574" y="137.5" width="16" height="40" as="geometry" />
        </mxCell>
      </root>
    </mxGraphModel>
  </diagram>
</mxfile>
